<svg width="28" height="26" viewBox="0 0 28 26" fill="none" xmlns="http://www.w3.org/2000/svg">
<g clip-path="url(#clip0)">
<path d="M7.62206 2.3022C10.0596 2.57301 12.0907 4.33343 13.9865 6.63554C15.8823 4.33343 18.0624 2.3022 20.7707 2.3022C24.2915 2.3022 25.8972 5.49676 25.4969 8.21286C25.0907 10.9689 24.0205 11.3751 19.2679 17.1981L14.6637 22.6147C13.7658 23.5713 14.2075 23.5713 13.3096 22.6147L11.6846 20.5835L10.3303 18.9584L8.84082 17.1981C3.84343 11.3751 2.68492 9.88554 2.48923 8.21286C2.08288 4.73972 4.38515 1.94257 7.62206 2.3022Z" fill="url(#paint0_linear)"/>
<path d="M20.7708 0.258301C17.95 0.258301 15.8154 1.91379 14 3.64372C12.2701 1.80798 10.0501 0.258301 7.22918 0.258301C3.25638 0.258301 0.458344 3.67416 0.458344 7.39901C0.458344 9.39724 1.27677 10.8369 2.17305 12.1885L12.6958 24.8043C13.8773 26.0543 14.0999 26.0543 15.2814 24.8043L25.8278 12.1885C26.8815 10.8369 27.5417 9.39724 27.5417 7.39901C27.5417 3.67421 24.7436 0.258301 20.7708 0.258301ZM24.1563 11.8382L14 23.9562L3.84376 11.7882C2.62926 10.0997 2.15105 8.96055 2.15105 7.39901C2.15105 4.48923 4.22886 1.86976 7.22918 1.8452C9.69717 1.82489 12.4944 4.34532 14 6.2454C15.4659 4.41134 18.3029 1.8452 20.7708 1.8452C23.6916 1.8452 25.849 4.48923 25.849 7.39901C25.849 8.96055 25.4706 10.1843 24.1563 11.8382Z" fill="black"/>
</g>
<defs>
<linearGradient id="paint0_linear" x1="-10.4146" y1="-12.3548" x2="29.8289" y2="-7.10721" gradientUnits="userSpaceOnUse">
<stop stop-color="#F64D4D"/>
<stop offset="1" stop-color="#4D5EF6"/>
</linearGradient>
<clipPath id="clip0">
<rect width="27.0833" height="26" fill="white" transform="translate(0.458344)"/>
</clipPath>
</defs>
</svg>
