<svg width="26" height="26" viewBox="0 0 26 26" fill="none" xmlns="http://www.w3.org/2000/svg">
<g clip-path="url(#clip0)">
<path d="M25.972 7.85007C25.9134 6.52172 25.6986 5.6085 25.3909 4.81717C25.0734 3.9772 24.5851 3.22518 23.9452 2.60002C23.32 1.96513 22.5631 1.47179 21.7328 1.15931C20.9369 0.851593 20.0285 0.636784 18.7001 0.578217C17.3619 0.514689 16.937 0.5 13.5428 0.5C10.1486 0.5 9.72372 0.514689 8.39041 0.573257C7.06207 0.631824 6.14884 0.846824 5.35771 1.15435C4.51755 1.47179 3.76552 1.96017 3.14036 2.60002C2.50547 3.22518 2.01233 3.98216 1.69965 4.8124C1.39194 5.6085 1.17713 6.51676 1.11856 7.84511C1.05503 9.18338 1.04034 9.60823 1.04034 13.0024C1.04034 16.3967 1.05503 16.8215 1.1136 18.1548C1.17217 19.4832 1.38717 20.3964 1.69488 21.1877C2.01233 22.0277 2.50547 22.7797 3.14036 23.4049C3.76552 24.0398 4.52251 24.5331 5.35275 24.8456C6.14884 25.1533 7.05711 25.3681 8.38564 25.4267C9.71876 25.4854 10.1438 25.4999 13.538 25.4999C16.9322 25.4999 17.3571 25.4854 18.6904 25.4267C20.0187 25.3681 20.932 25.1533 21.7231 24.8456C23.4032 24.196 24.7316 22.8677 25.3811 21.1877C25.6887 20.3916 25.9037 19.4832 25.9622 18.1548C26.0208 16.8215 26.0355 16.3967 26.0355 13.0024C26.0355 9.60823 26.0305 9.18338 25.972 7.85007ZM23.7207 18.0571C23.6669 19.2781 23.4618 19.9374 23.2909 20.3769C22.8708 21.4661 22.0064 22.3304 20.9173 22.7505C20.4777 22.9215 19.8137 23.1265 18.5975 23.1801C17.2789 23.2389 16.8834 23.2534 13.5477 23.2534C10.2121 23.2534 9.81166 23.2389 8.49782 23.1801C7.27688 23.1265 6.61757 22.9215 6.17803 22.7505C5.63604 22.5502 5.14271 22.2328 4.74228 21.8176C4.32716 21.4123 4.00971 20.9239 3.8094 20.3819C3.63847 19.9424 3.43339 19.2781 3.37978 18.0621C3.32102 16.7435 3.30653 16.3478 3.30653 13.0122C3.30653 9.67652 3.32102 9.27609 3.37978 7.96243C3.43339 6.74149 3.63847 6.08218 3.8094 5.64265C4.00971 5.10047 4.32716 4.60732 4.74724 4.2067C5.15244 3.79158 5.64081 3.47414 6.18299 3.27402C6.62253 3.10309 7.2868 2.89801 8.50278 2.84421C9.82139 2.78564 10.2171 2.77095 13.5525 2.77095C16.8931 2.77095 17.2886 2.78564 18.6024 2.84421C19.8234 2.89801 20.4827 3.10309 20.9222 3.27402C21.4642 3.47414 21.9576 3.79158 22.358 4.2067C22.7731 4.61209 23.0905 5.10047 23.2909 5.64265C23.4618 6.08218 23.6669 6.74626 23.7207 7.96243C23.7792 9.28105 23.7939 9.67652 23.7939 13.0122C23.7939 16.3478 23.7792 16.7385 23.7207 18.0571Z" fill="white"/>
<path d="M13.5422 6.58032C9.99671 6.58032 7.12006 9.45679 7.12006 13.0025C7.12006 16.5482 9.99671 19.4246 13.5422 19.4246C17.0879 19.4246 19.9644 16.5482 19.9644 13.0025C19.9644 9.45679 17.0879 6.58032 13.5422 6.58032ZM13.5422 17.1684C11.2421 17.1684 9.37632 15.3028 9.37632 13.0025C9.37632 10.7021 11.2421 8.83659 13.5422 8.83659C15.8425 8.83659 17.7081 10.7021 17.7081 13.0025C17.7081 15.3028 15.8425 17.1684 13.5422 17.1684V17.1684Z" fill="white"/>
<path d="M21.7178 6.32643C21.7178 7.15438 21.0465 7.82571 20.2184 7.82571C19.3904 7.82571 18.7191 7.15438 18.7191 6.32643C18.7191 5.49828 19.3904 4.82715 20.2184 4.82715C21.0465 4.82715 21.7178 5.49828 21.7178 6.32643V6.32643Z" fill="white"/>
</g>
<defs>
<clipPath id="clip0">
<rect width="25" height="25" fill="white" transform="translate(0.995911 0.5)"/>
</clipPath>
</defs>
</svg>
