<svg width="27" height="26" viewBox="0 0 27 26" fill="none" xmlns="http://www.w3.org/2000/svg">
<path d="M26.423 24.5855L19.5359 17.98C21.3394 16.0701 22.4476 13.5443 22.4476 10.7649C22.4467 4.81923 17.4222 0 11.2238 0C5.02529 0 0.000823975 4.81923 0.000823975 10.7649C0.000823975 16.7106 5.02529 21.5298 11.2238 21.5298C13.9019 21.5298 16.3583 20.6269 18.2877 19.1258L25.2016 25.7574C25.5385 26.0809 26.0854 26.0809 26.4223 25.7574C26.7599 25.434 26.7599 24.909 26.423 24.5855ZM11.2238 19.8735C5.97918 19.8735 1.72763 15.7955 1.72763 10.7649C1.72763 5.73431 5.97918 1.65624 11.2238 1.65624C16.4684 1.65624 20.7199 5.73431 20.7199 10.7649C20.7199 15.7955 16.4684 19.8735 11.2238 19.8735Z" fill="black"/>
</svg>
