<svg width="29" height="26" viewBox="0 0 29 26" fill="none" xmlns="http://www.w3.org/2000/svg">
<g clip-path="url(#clip0)">
<path d="M27.489 6.24707C27.6689 5.63672 27.489 5.1875 26.6238 5.1875H23.7606C23.0314 5.1875 22.696 5.57324 22.5161 6.00293C22.5161 6.00293 21.0578 9.57227 18.9967 11.8867C18.3307 12.5557 18.0245 12.7705 17.6599 12.7705C17.48 12.7705 17.2029 12.5557 17.2029 11.9453V6.24707C17.2029 5.51465 16.9988 5.1875 16.396 5.1875H11.8946C11.4376 5.1875 11.1654 5.5293 11.1654 5.84668C11.1654 6.54004 12.196 6.70117 12.3029 8.6543V12.8926C12.3029 13.8203 12.1376 13.9912 11.7731 13.9912C10.8008 13.9912 8.43834 10.4072 7.03834 6.30566C6.7564 5.50977 6.47931 5.1875 5.74529 5.1875H2.88209C2.06542 5.1875 1.90015 5.57324 1.90015 6.00293C1.90015 6.76465 2.87237 10.5488 6.42584 15.5488C8.7932 18.9619 12.1279 20.8125 15.1613 20.8125C16.9842 20.8125 17.2078 20.4023 17.2078 19.6943C17.2078 16.4326 17.0425 16.125 17.9564 16.125C18.3793 16.125 19.1085 16.3398 20.8099 17.9854C22.7543 19.9385 23.0751 20.8125 24.164 20.8125H27.0272C27.8439 20.8125 28.2571 20.4023 28.0189 19.5918C27.4745 17.8877 23.7946 14.3818 23.6293 14.1475C23.2064 13.6006 23.3279 13.3564 23.6293 12.8682C23.6342 12.8633 27.1293 7.92187 27.489 6.24707V6.24707Z" fill="white"/>
</g>
<defs>
<clipPath id="clip0">
<rect width="28" height="25" fill="white" transform="translate(0.995911 0.5)"/>
</clipPath>
</defs>
</svg>
